<svg xmlns="http://www.w3.org/2000/svg" xmlns:xlink="http://www.w3.org/1999/xlink" width="180" zoomAndPan="magnify" viewBox="0 0 135 44.999999" height="60" preserveAspectRatio="xMidYMid meet" version="1.0"><defs><g/></defs><g fill="#545454" fill-opacity="1"><g transform="translate(35.158572, 31.192276)"><g><path d="M 6.21875 -5.359375 L 1.234375 -5.359375 L 1.234375 -6.96875 L 6.21875 -6.96875 Z M 6.21875 -5.359375 "/></g></g></g><g fill="#545454" fill-opacity="1"><g transform="translate(42.610887, 31.192276)"><g><path d="M 11.546875 -12.03125 L 7.046875 -12.03125 L 7.046875 0 L 4.65625 0 L 4.65625 -12.03125 L 0.1875 -12.03125 L 0.1875 -14.171875 L 11.546875 -14.171875 Z M 11.546875 -12.03125 "/></g></g></g><g fill="#545454" fill-opacity="1"><g transform="translate(54.336133, 31.192276)"><g><path d="M 16.84375 0 L 14.640625 0 L 14.625 -10.59375 L 10.140625 -1.484375 L 8.59375 -1.484375 L 4.109375 -10.59375 L 4.109375 0 L 1.859375 0 L 1.859375 -14.171875 L 4.703125 -14.171875 L 9.375 -4.765625 L 14.03125 -14.171875 L 16.84375 -14.171875 Z M 16.84375 0 "/></g></g></g><g fill="#545454" fill-opacity="1"><g transform="translate(73.068177, 31.192276)"><g><path d="M 11.5625 -6.96875 L 13.65625 -6.96875 L 13.65625 -1.734375 C 12.925781 -1.179688 12.0625 -0.738281 11.0625 -0.40625 C 10.070312 -0.0703125 9.097656 0.09375 8.140625 0.09375 C 6.046875 0.09375 4.28125 -0.59375 2.84375 -1.96875 C 1.40625 -3.351562 0.6875 -5.054688 0.6875 -7.078125 C 0.6875 -9.109375 1.414062 -10.804688 2.875 -12.171875 C 4.332031 -13.546875 6.132812 -14.234375 8.28125 -14.234375 C 9.28125 -14.234375 10.257812 -14.050781 11.21875 -13.6875 C 12.1875 -13.332031 13.023438 -12.851562 13.734375 -12.25 L 12.375 -10.484375 C 11.207031 -11.566406 9.84375 -12.109375 8.28125 -12.109375 C 6.832031 -12.109375 5.609375 -11.617188 4.609375 -10.640625 C 3.617188 -9.671875 3.125 -8.488281 3.125 -7.09375 C 3.125 -5.675781 3.625 -4.476562 4.625 -3.5 C 5.632812 -2.53125 6.859375 -2.046875 8.296875 -2.046875 C 9.390625 -2.046875 10.476562 -2.367188 11.5625 -3.015625 Z M 11.5625 -6.96875 "/></g></g></g><g fill="#545454" fill-opacity="1"><g transform="translate(88.236069, 31.192276)"><g><path d="M 1.859375 -14.171875 L 7.671875 -14.171875 C 9.796875 -14.171875 11.546875 -13.503906 12.921875 -12.171875 C 14.304688 -10.835938 15 -9.144531 15 -7.09375 C 15 -5.039062 14.300781 -3.34375 12.90625 -2 C 11.519531 -0.664062 9.753906 0 7.609375 0 L 1.859375 0 Z M 4.25 -12.03125 L 4.25 -2.140625 L 7.734375 -2.140625 C 9.128906 -2.140625 10.285156 -2.601562 11.203125 -3.53125 C 12.128906 -4.457031 12.59375 -5.632812 12.59375 -7.0625 C 12.59375 -8.5 12.113281 -9.6875 11.15625 -10.625 C 10.207031 -11.5625 9.035156 -12.03125 7.640625 -12.03125 Z M 4.25 -12.03125 "/></g></g></g><g fill="#545454" fill-opacity="1"><g transform="translate(21.605409, 30.548579)"><g><path d="M 14.359375 -3.59375 C 13.929688 -3.039062 13.460938 -2.523438 12.953125 -2.046875 C 12.441406 -1.566406 11.882812 -1.148438 11.28125 -0.796875 C 10.6875 -0.441406 10.054688 -0.160156 9.390625 0.046875 C 8.734375 0.265625 8.046875 0.375 7.328125 0.375 C 6.421875 0.375 5.582031 0.210938 4.8125 -0.109375 C 4.050781 -0.441406 3.394531 -0.894531 2.84375 -1.46875 C 2.289062 -2.039062 1.859375 -2.71875 1.546875 -3.5 C 1.242188 -4.28125 1.09375 -5.117188 1.09375 -6.015625 C 1.09375 -6.753906 1.195312 -7.476562 1.40625 -8.1875 C 1.613281 -8.90625 1.90625 -9.578125 2.28125 -10.203125 C 2.664062 -10.835938 3.117188 -11.421875 3.640625 -11.953125 C 4.171875 -12.492188 4.75 -12.953125 5.375 -13.328125 C 6 -13.710938 6.660156 -14.007812 7.359375 -14.21875 C 8.066406 -14.4375 8.789062 -14.546875 9.53125 -14.546875 C 10.039062 -14.546875 10.523438 -14.484375 10.984375 -14.359375 C 11.453125 -14.242188 11.863281 -14.050781 12.21875 -13.78125 C 12.582031 -13.519531 12.867188 -13.179688 13.078125 -12.765625 C 13.285156 -12.359375 13.390625 -11.867188 13.390625 -11.296875 C 13.390625 -10.828125 13.25 -10.332031 12.96875 -9.8125 C 12.695312 -9.300781 12.332031 -8.785156 11.875 -8.265625 C 11.425781 -7.753906 10.921875 -7.25 10.359375 -6.75 C 9.796875 -6.25 9.21875 -5.785156 8.625 -5.359375 C 8.039062 -4.941406 7.476562 -4.570312 6.9375 -4.25 C 6.394531 -3.925781 5.921875 -3.679688 5.515625 -3.515625 C 5.972656 -2.941406 6.503906 -2.476562 7.109375 -2.125 C 7.710938 -1.769531 8.351562 -1.59375 9.03125 -1.59375 C 9.457031 -1.59375 9.890625 -1.675781 10.328125 -1.84375 C 10.773438 -2.007812 11.203125 -2.21875 11.609375 -2.46875 C 12.023438 -2.726562 12.421875 -3.007812 12.796875 -3.3125 C 13.179688 -3.625 13.519531 -3.914062 13.8125 -4.1875 Z M 9.921875 -10.609375 C 9.921875 -10.898438 9.875 -11.171875 9.78125 -11.421875 C 9.6875 -11.679688 9.550781 -11.90625 9.375 -12.09375 C 9.207031 -12.289062 9.003906 -12.445312 8.765625 -12.5625 C 8.523438 -12.675781 8.25 -12.734375 7.9375 -12.734375 C 7.382812 -12.734375 6.875 -12.539062 6.40625 -12.15625 C 5.9375 -11.769531 5.53125 -11.289062 5.1875 -10.71875 C 4.851562 -10.15625 4.59375 -9.554688 4.40625 -8.921875 C 4.21875 -8.285156 4.125 -7.726562 4.125 -7.25 C 4.125 -6.78125 4.195312 -6.300781 4.34375 -5.8125 C 4.488281 -5.320312 4.691406 -4.847656 4.953125 -4.390625 C 5.441406 -4.660156 5.972656 -5.035156 6.546875 -5.515625 C 7.128906 -5.992188 7.671875 -6.519531 8.171875 -7.09375 C 8.671875 -7.664062 9.085938 -8.257812 9.421875 -8.875 C 9.753906 -9.488281 9.921875 -10.066406 9.921875 -10.609375 Z M 9.921875 -10.609375 "/></g></g></g><g fill="#545454" fill-opacity="1"><g transform="translate(104.077159, 31.105529)"><g><path d="M 11.59375 -2.234375 C 11.457031 -1.992188 11.28125 -1.734375 11.0625 -1.453125 C 10.84375 -1.171875 10.597656 -0.910156 10.328125 -0.671875 C 10.066406 -0.429688 9.785156 -0.226562 9.484375 -0.0625 C 9.179688 0.09375 8.875 0.171875 8.5625 0.171875 C 8.175781 0.171875 7.820312 0.0859375 7.5 -0.078125 C 7.1875 -0.242188 6.898438 -0.453125 6.640625 -0.703125 C 6.378906 -0.960938 6.132812 -1.25 5.90625 -1.5625 C 5.6875 -1.875 5.484375 -2.171875 5.296875 -2.453125 C 5.023438 -2.847656 4.753906 -3.269531 4.484375 -3.71875 C 4.222656 -4.175781 3.953125 -4.609375 3.671875 -5.015625 L 3.671875 -0.40625 L 1.75 0.28125 L 1.75 -13.046875 L 3.671875 -13.734375 L 3.671875 -5.609375 L 9.875 -13.359375 L 10.96875 -13.265625 L 5.171875 -6.390625 C 5.628906 -5.753906 6.09375 -5.09375 6.5625 -4.40625 C 7.03125 -3.71875 7.503906 -3.0625 7.984375 -2.4375 C 8.078125 -2.3125 8.175781 -2.179688 8.28125 -2.046875 C 8.394531 -1.921875 8.519531 -1.800781 8.65625 -1.6875 C 8.789062 -1.582031 8.929688 -1.492188 9.078125 -1.421875 C 9.222656 -1.347656 9.382812 -1.3125 9.5625 -1.3125 C 9.695312 -1.3125 9.847656 -1.351562 10.015625 -1.4375 C 10.179688 -1.53125 10.34375 -1.640625 10.5 -1.765625 C 10.664062 -1.890625 10.816406 -2.019531 10.953125 -2.15625 C 11.085938 -2.289062 11.195312 -2.40625 11.28125 -2.5 Z M 11.59375 -2.234375 "/></g></g></g></svg>