<svg xmlns="http://www.w3.org/2000/svg" xmlns:xlink="http://www.w3.org/1999/xlink" width="200" zoomAndPan="magnify" viewBox="0 0 150 74.999997" height="100" preserveAspectRatio="xMidYMid meet" version="1.0"><defs><g/></defs><g fill="#545454" fill-opacity="1"><g transform="translate(21.536419, 50.912401)"><g><path d="M 9.84375 -8.5 L 1.953125 -8.5 L 1.953125 -11.03125 L 9.84375 -11.03125 Z M 9.84375 -8.5 "/></g></g></g><g fill="#545454" fill-opacity="1"><g transform="translate(33.339728, 50.912401)"><g><path d="M 18.28125 -19.046875 L 11.15625 -19.046875 L 11.15625 0 L 7.375 0 L 7.375 -19.046875 L 0.28125 -19.046875 L 0.28125 -22.453125 L 18.28125 -22.453125 Z M 18.28125 -19.046875 "/></g></g></g><g fill="#545454" fill-opacity="1"><g transform="translate(51.910696, 50.912401)"><g><path d="M 26.6875 0 L 23.1875 0 L 23.15625 -16.78125 L 16.078125 -2.34375 L 13.59375 -2.34375 L 6.515625 -16.78125 L 6.515625 0 L 2.953125 0 L 2.953125 -22.453125 L 7.4375 -22.453125 L 14.859375 -7.53125 L 22.234375 -22.453125 L 26.6875 -22.453125 Z M 26.6875 0 "/></g></g></g><g fill="#545454" fill-opacity="1"><g transform="translate(81.579341, 50.912401)"><g><path d="M 18.3125 -11.03125 L 21.625 -11.03125 L 21.625 -2.765625 C 20.46875 -1.878906 19.101562 -1.171875 17.53125 -0.640625 C 15.957031 -0.109375 14.410156 0.15625 12.890625 0.15625 C 9.578125 0.15625 6.78125 -0.9375 4.5 -3.125 C 2.226562 -5.320312 1.09375 -8.019531 1.09375 -11.21875 C 1.09375 -14.425781 2.242188 -17.113281 4.546875 -19.28125 C 6.859375 -21.457031 9.71875 -22.546875 13.125 -22.546875 C 14.707031 -22.546875 16.257812 -22.257812 17.78125 -21.6875 C 19.3125 -21.125 20.632812 -20.363281 21.75 -19.40625 L 19.59375 -16.609375 C 17.757812 -18.328125 15.601562 -19.1875 13.125 -19.1875 C 10.832031 -19.1875 8.894531 -18.414062 7.3125 -16.875 C 5.726562 -15.332031 4.9375 -13.453125 4.9375 -11.234375 C 4.9375 -8.984375 5.734375 -7.085938 7.328125 -5.546875 C 8.921875 -4.003906 10.863281 -3.234375 13.15625 -3.234375 C 14.882812 -3.234375 16.601562 -3.75 18.3125 -4.78125 Z M 18.3125 -11.03125 "/></g></g></g><g fill="#545454" fill-opacity="1"><g transform="translate(105.602925, 50.912401)"><g><path d="M 2.953125 -22.453125 L 12.15625 -22.453125 C 15.507812 -22.453125 18.28125 -21.394531 20.46875 -19.28125 C 22.664062 -17.164062 23.765625 -14.476562 23.765625 -11.21875 C 23.765625 -7.96875 22.660156 -5.285156 20.453125 -3.171875 C 18.253906 -1.054688 15.457031 0 12.0625 0 L 2.953125 0 Z M 6.734375 -19.046875 L 6.734375 -3.40625 L 12.25 -3.40625 C 14.457031 -3.40625 16.289062 -4.132812 17.75 -5.59375 C 19.21875 -7.0625 19.953125 -8.925781 19.953125 -11.1875 C 19.953125 -13.457031 19.195312 -15.332031 17.6875 -16.8125 C 16.175781 -18.300781 14.3125 -19.046875 12.09375 -19.046875 Z M 6.734375 -19.046875 "/></g></g></g><g fill="#545454" fill-opacity="1"><g transform="translate(0.0703155, 49.892885)"><g><path d="M 22.75 -5.703125 C 22.0625 -4.828125 21.3125 -4.007812 20.5 -3.25 C 19.695312 -2.488281 18.820312 -1.820312 17.875 -1.25 C 16.925781 -0.6875 15.925781 -0.242188 14.875 0.078125 C 13.820312 0.410156 12.734375 0.578125 11.609375 0.578125 C 10.160156 0.578125 8.832031 0.320312 7.625 -0.1875 C 6.414062 -0.707031 5.375 -1.421875 4.5 -2.328125 C 3.625 -3.234375 2.941406 -4.300781 2.453125 -5.53125 C 1.960938 -6.769531 1.71875 -8.101562 1.71875 -9.53125 C 1.71875 -10.695312 1.882812 -11.84375 2.21875 -12.96875 C 2.550781 -14.101562 3.019531 -15.164062 3.625 -16.15625 C 4.226562 -17.15625 4.941406 -18.078125 5.765625 -18.921875 C 6.597656 -19.773438 7.507812 -20.503906 8.5 -21.109375 C 9.5 -21.710938 10.550781 -22.179688 11.65625 -22.515625 C 12.769531 -22.859375 13.910156 -23.03125 15.078125 -23.03125 C 15.898438 -23.03125 16.675781 -22.929688 17.40625 -22.734375 C 18.132812 -22.546875 18.78125 -22.242188 19.34375 -21.828125 C 19.914062 -21.410156 20.367188 -20.875 20.703125 -20.21875 C 21.035156 -19.5625 21.203125 -18.785156 21.203125 -17.890625 C 21.203125 -17.148438 20.976562 -16.367188 20.53125 -15.546875 C 20.09375 -14.734375 19.519531 -13.914062 18.8125 -13.09375 C 18.101562 -12.28125 17.300781 -11.476562 16.40625 -10.6875 C 15.507812 -9.894531 14.597656 -9.160156 13.671875 -8.484375 C 12.742188 -7.816406 11.847656 -7.226562 10.984375 -6.71875 C 10.128906 -6.21875 9.378906 -5.832031 8.734375 -5.5625 C 9.460938 -4.65625 10.300781 -3.921875 11.25 -3.359375 C 12.207031 -2.796875 13.222656 -2.515625 14.296875 -2.515625 C 14.972656 -2.515625 15.660156 -2.644531 16.359375 -2.90625 C 17.066406 -3.164062 17.75 -3.5 18.40625 -3.90625 C 19.0625 -4.320312 19.6875 -4.773438 20.28125 -5.265625 C 20.875 -5.753906 21.40625 -6.210938 21.875 -6.640625 Z M 15.703125 -16.8125 C 15.703125 -17.257812 15.628906 -17.6875 15.484375 -18.09375 C 15.335938 -18.507812 15.125 -18.867188 14.84375 -19.171875 C 14.570312 -19.472656 14.242188 -19.710938 13.859375 -19.890625 C 13.484375 -20.078125 13.054688 -20.171875 12.578125 -20.171875 C 11.691406 -20.171875 10.878906 -19.863281 10.140625 -19.25 C 9.398438 -18.632812 8.757812 -17.878906 8.21875 -16.984375 C 7.6875 -16.085938 7.269531 -15.132812 6.96875 -14.125 C 6.664062 -13.125 6.515625 -12.242188 6.515625 -11.484375 C 6.515625 -10.742188 6.628906 -9.984375 6.859375 -9.203125 C 7.097656 -8.429688 7.421875 -7.679688 7.828125 -6.953125 C 8.609375 -7.378906 9.457031 -7.972656 10.375 -8.734375 C 11.289062 -9.492188 12.144531 -10.328125 12.9375 -11.234375 C 13.726562 -12.140625 14.382812 -13.082031 14.90625 -14.0625 C 15.4375 -15.039062 15.703125 -15.957031 15.703125 -16.8125 Z M 15.703125 -16.8125 "/></g></g></g><g fill="#545454" fill-opacity="1"><g transform="translate(130.692751, 50.775009)"><g><path d="M 18.34375 -3.53125 C 18.132812 -3.15625 17.859375 -2.742188 17.515625 -2.296875 C 17.179688 -1.859375 16.800781 -1.445312 16.375 -1.0625 C 15.957031 -0.6875 15.507812 -0.367188 15.03125 -0.109375 C 14.550781 0.140625 14.0625 0.265625 13.5625 0.265625 C 12.945312 0.265625 12.390625 0.132812 11.890625 -0.125 C 11.390625 -0.394531 10.929688 -0.726562 10.515625 -1.125 C 10.097656 -1.53125 9.710938 -1.976562 9.359375 -2.46875 C 9.015625 -2.96875 8.691406 -3.441406 8.390625 -3.890625 C 7.960938 -4.503906 7.535156 -5.171875 7.109375 -5.890625 C 6.679688 -6.617188 6.253906 -7.300781 5.828125 -7.9375 L 5.828125 -0.640625 L 2.765625 0.453125 L 2.765625 -20.65625 L 5.828125 -21.734375 L 5.828125 -8.875 L 15.640625 -21.171875 L 17.359375 -21 L 8.1875 -10.109375 C 8.914062 -9.109375 9.648438 -8.0625 10.390625 -6.96875 C 11.128906 -5.875 11.878906 -4.835938 12.640625 -3.859375 C 12.796875 -3.660156 12.960938 -3.457031 13.140625 -3.25 C 13.316406 -3.039062 13.503906 -2.847656 13.703125 -2.671875 C 13.910156 -2.503906 14.128906 -2.363281 14.359375 -2.25 C 14.597656 -2.132812 14.863281 -2.078125 15.15625 -2.078125 C 15.363281 -2.078125 15.597656 -2.144531 15.859375 -2.28125 C 16.128906 -2.425781 16.390625 -2.597656 16.640625 -2.796875 C 16.898438 -2.992188 17.132812 -3.195312 17.34375 -3.40625 C 17.5625 -3.625 17.734375 -3.804688 17.859375 -3.953125 Z M 18.34375 -3.53125 "/></g></g></g></svg>